HIERARCHY
ROOT pelvis
{
	OFFSET 0.000000 0.000000 0.000000
	CHANNELS 6 Xposition Yposition Zposition Zrotation Yrotation Xrotation
	JOINT left_hip
	{
		OFFSET 0.055779 -0.080629 -0.017705
		CHANNELS 3 Zrotation Yrotation Xrotation
		JOINT left_knee
		{
			OFFSET 0.039469 -0.359247 0.009008
			CHANNELS 3 Zrotation Yrotation Xrotation
			JOINT left_ankle
			{
				OFFSET -0.013809 -0.389899 -0.036404
				CHANNELS 3 Zrotation Yrotation Xrotation
				JOINT left_foot
				{
					OFFSET 0.037897 -0.056346 0.116500
					CHANNELS 3 Zrotation Yrotation Xrotation
					End Site
					{
						OFFSET 0.000000 0.000000 0.000000
					}
				}
			}
		}
	}
	JOINT right_hip
	{
		OFFSET -0.057787 -0.088871 -0.013401
		CHANNELS 3 Zrotation Yrotation Xrotation
		JOINT right_knee
		{
			OFFSET -0.039496 -0.356943 -0.002206
			CHANNELS 3 Zrotation Yrotation Xrotation
			JOINT right_ankle
			{
				OFFSET 0.017959 -0.383749 -0.033094
				CHANNELS 3 Zrotation Yrotation Xrotation
				JOINT right_foot
				{
					OFFSET -0.031235 -0.058281 0.124713
					CHANNELS 3 Zrotation Yrotation Xrotation
					End Site
					{
						OFFSET 0.000000 0.000000 0.000000
					}
				}
			}
		}
	}
	JOINT spine1
	{
		OFFSET 0.004196 0.122659 -0.034271
		CHANNELS 3 Zrotation Yrotation Xrotation
		JOINT spine2
		{
			OFFSET 0.005122 0.143143 0.029537
			CHANNELS 3 Zrotation Yrotation Xrotation
			JOINT spine3
			{
				OFFSET -0.001923 0.057757 0.004628
				CHANNELS 3 Zrotation Yrotation Xrotation
				JOINT neck
				{
					OFFSET -0.013781 0.203940 -0.035143
					CHANNELS 3 Zrotation Yrotation Xrotation
					JOINT head
					{
						OFFSET 0.009065 0.086539 0.049216
						CHANNELS 3 Zrotation Yrotation Xrotation
						End Site
						{
							OFFSET 0.000000 0.000000 0.000000
						}
					}
				}
				JOINT left_collar
				{
					OFFSET 0.070315 0.109742 -0.020357
					CHANNELS 3 Zrotation Yrotation Xrotation
					JOINT left_shoulder
					{
						OFFSET 0.122280 0.043464 -0.020451
						CHANNELS 3 Zrotation Yrotation Xrotation
						JOINT left_elbow
						{
							OFFSET 0.245347 -0.013316 -0.020298
							CHANNELS 3 Zrotation Yrotation Xrotation
							JOINT left_wrist
							{
								OFFSET 0.251466 0.010925 -0.008411
								CHANNELS 3 Zrotation Yrotation Xrotation
								End Site
								{
									OFFSET 0.000000 0.000000 0.000000
								}
							}
						}
					}
				}
				JOINT right_collar
				{
					OFFSET -0.083386 0.108780 -0.024575
					CHANNELS 3 Zrotation Yrotation Xrotation
					JOINT right_shoulder
					{
						OFFSET -0.112806 0.044731 -0.008805
						CHANNELS 3 Zrotation Yrotation Xrotation
						JOINT right_elbow
						{
							OFFSET -0.248827 -0.010357 -0.028458
							CHANNELS 3 Zrotation Yrotation Xrotation
							JOINT right_wrist
							{
								OFFSET -0.255561 0.006434 -0.006231
								CHANNELS 3 Zrotation Yrotation Xrotation
								End Site
								{
									OFFSET 0.000000 0.000000 0.000000
								}
							}
						}
					}
				}
			}
		}
	}
}
MOTION
Frames: 16
Frame Time: 0.033333
-0.917851 0.732922 1.122070 20.015000 -71.471300 -19.771000 5.404313 -10.003346 7.180340 -1.021763 -1.561766 30.139757 2.468379 28.827033 -17.427262 0.000000 0.000000 0.000000 -14.345580 -15.286840 -56.741807 0.235944 0.790331 64.221584 -0.027253 10.484871 -4.201841 0.000000 0.000000 0.000000 -10.631873 8.584318 12.413241 0.000000 0.000000 0.000000 1.315774 2.129451 -8.526952 -13.440598 -12.420709 17.349687 21.776494 -20.874361 -27.103936 0.000000 0.000000 0.000000 -70.839977 30.119895 60.297153 110.304976 -49.148901 -84.191463 -3.447109 6.585041 -55.224494 0.000000 0.000000 0.000000 -1.816179 60.226836 -34.055064 -10.332985 16.360644 -3.851987 0.620942 3.098809 22.656566
-0.917670 0.732030 1.120672 18.534000 -71.047300 -17.968000 5.945121 -10.364918 6.217214 -1.031332 -1.558550 30.917694 2.573540 29.155945 -17.392594 0.000000 0.000000 0.000000 -13.912472 -15.840015 -57.045671 0.217730 0.782354 64.412352 -0.025004 10.353348 -4.415583 0.000000 0.000000 0.000000 -10.680455 7.923802 12.316614 0.000000 0.000000 0.000000 1.814422 1.999009 -8.925136 -12.593822 -12.767839 17.111444 20.846654 -21.723780 -27.186935 0.000000 0.000000 0.000000 -70.825746 30.217148 60.396141 110.224915 -49.172689 -84.123843 -3.323355 6.497913 -54.137789 0.000000 0.000000 0.000000 -1.613616 60.432488 -33.774627 -10.255235 16.250338 -3.814071 0.592725 3.030431 22.128778
-0.918440 0.730705 1.120954 16.897000 -71.185600 -16.198000 6.282831 -10.684852 5.515589 -1.049427 -1.556831 32.053642 2.760223 29.909850 -17.537561 0.000000 0.000000 0.000000 -13.415871 -15.838333 -57.164864 0.202342 0.776946 64.420002 -0.007134 10.332397 -4.488797 0.000000 0.000000 0.000000 -10.195411 7.639244 12.036404 0.000000 0.000000 0.000000 2.015980 1.966179 -8.886854 -12.799909 -13.044824 17.450198 21.752212 -22.073890 -27.969005 0.000000 0.000000 0.000000 -70.804440 30.204644 60.845240 110.274668 -49.157941 -84.165817 -3.387328 6.543387 -54.701185 0.000000 0.000000 0.000000 -1.592591 60.566406 -34.675014 -10.056043 15.966660 -3.717182 0.628687 3.117283 22.799433
-0.916790 0.728592 1.122175 15.510000 -71.414000 -14.564000 6.613709 -10.721096 4.049105 -1.092658 -1.555401 34.270384 3.038812 30.580493 -18.024362 0.000000 0.000000 0.000000 -12.974859 -15.765941 -57.624070 0.182037 0.773026 64.427695 0.071760 10.705964 -4.330163 0.000000 0.000000 0.000000 -9.673809 7.389922 11.763489 0.000000 0.000000 0.000000 2.060216 1.936994 -8.888420 -13.130213 -13.290922 17.587916 22.842919 -22.336427 -28.315483 0.000000 0.000000 0.000000 -70.834492 30.115312 60.919951 109.838112 -49.286273 -83.797249 -3.367073 6.529081 -54.523544 0.000000 0.000000 0.000000 -1.440565 60.601743 -34.940668 -10.044881 15.950780 -3.711852 0.568010 2.969010 21.656535
-0.911749 0.725406 1.123866 14.185000 -71.759200 -12.967000 7.050696 -10.550322 1.444464 -1.159268 -1.530698 38.152760 3.476671 31.262544 -17.374163 0.000000 0.000000 0.000000 -12.611460 -15.186521 -58.313641 0.143065 0.758584 64.353157 0.136249 10.838527 -3.940513 0.000000 0.000000 0.000000 -9.044238 7.294246 11.697890 0.000000 0.000000 0.000000 1.917335 1.940811 -8.839271 -13.903617 -13.613444 18.134513 24.730033 -22.574955 -29.320948 0.000000 0.000000 0.000000 -70.718624 29.780809 61.115644 109.478698 -49.390027 -83.493512 -3.298430 6.479938 -53.917201 0.000000 0.000000 0.000000 -1.770435 60.157086 -36.038151 -9.940799 15.801996 -3.661585 0.583424 3.007493 21.952203
-0.902889 0.721442 1.126443 12.534000 -72.116700 -11.159000 7.484031 -11.012948 -2.298654 -1.245832 -1.472403 43.902504 3.966841 31.120929 -16.546675 0.000000 0.000000 0.000000 -12.433331 -14.057608 -58.971638 0.077249 0.732769 64.123858 0.146920 10.397959 -3.447695 0.000000 0.000000 0.000000 -8.215656 7.222573 11.974909 0.000000 0.000000 0.000000 1.872164 1.963475 -8.791643 -13.594278 -14.006365 18.449062 25.176997 -23.129233 -30.729992 0.000000 0.000000 0.000000 -70.381355 29.102855 61.589925 109.448018 -49.398808 -83.467539 -3.221315 6.423400 -53.231278 0.000000 0.000000 0.000000 -2.405501 59.537324 -35.726381 -10.307029 16.323844 -3.839307 0.380525 2.445179 17.688537
-0.890480 0.717148 1.130357 10.827000 -72.581800 -9.318000 7.719651 -12.275493 -6.691117 -1.316400 -1.381751 50.537233 4.397640 30.303481 -15.349712 0.000000 0.000000 0.000000 -12.497401 -12.644484 -59.628601 -0.000676 0.697201 63.516313 0.172471 10.003312 -2.439153 0.000000 0.000000 0.000000 -7.423304 7.047166 12.301570 0.000000 0.000000 0.000000 2.051881 1.975493 -8.713299 -13.796710 -14.348424 18.972213 26.391313 -23.459721 -32.086808 0.000000 0.000000 0.000000 -69.976888 28.229493 62.327418 109.537404 -49.373220 -83.543096 -3.196610 6.404970 -53.010082 0.000000 0.000000 0.000000 -2.880702 58.872227 -31.989454 -11.789628 18.386350 -4.585403 0.056555 0.952630 6.794854
-0.874942 0.713275 1.138456 8.808000 -73.110900 -7.575000 7.377061 -14.262836 -10.495926 -1.332862 -1.283257 56.432549 4.742016 29.581900 -13.894499 0.000000 0.000000 0.000000 -12.950505 -11.293187 -59.652021 -0.073615 0.651922 62.213438 0.228157 9.948336 -1.042619 0.000000 0.000000 0.000000 -6.029894 7.002861 13.060433 0.000000 0.000000 0.000000 1.753979 1.994044 -8.567787 -13.814191 -14.808987 19.543172 27.795106 -23.965917 -33.576826 0.000000 0.000000 0.000000 -68.795023 26.704357 63.340357 110.201266 -49.179699 -84.103969 -3.394458 6.548392 -54.763885 0.000000 0.000000 0.000000 -3.240169 57.816544 -29.624076 -13.446754 20.595636 -5.466989 0.014005 0.474709 3.379766
-0.858943 0.710858 1.147421 7.166000 -74.720200 -6.719000 6.799954 -15.615025 -12.535462 -1.333276 -1.214761 60.855585 5.011419 29.115199 -12.984292 0.000000 0.000000 0.000000 -13.498288 -8.733772 -59.125821 -0.140498 0.597658 60.394885 0.252647 9.784690 0.560820 0.000000 0.000000 0.000000 -5.233558 7.256134 14.044556 0.000000 0.000000 0.000000 2.139459 2.120306 -8.327662 -13.615576 -15.132678 20.145063 29.028357 -24.203043 -35.075826 0.000000 0.000000 0.000000 -67.488335 24.373824 64.103598 110.604245 -49.059396 -84.443810 -3.297349 6.479151 -53.907811 0.000000 0.000000 0.000000 -3.532904 57.682718 -27.585985 -15.763754 23.512672 -6.777271 0.001921 -0.175901 -1.251706
-0.831704 0.707187 1.155384 4.220000 -74.956400 -3.175000 7.475466 -18.142023 -16.710317 -1.289694 -1.151426 64.434974 5.210081 28.687614 -11.859262 0.000000 0.000000 0.000000 -14.098500 -7.027179 -59.667698 -0.218274 0.519225 57.708222 0.163562 8.873983 3.204649 0.000000 0.000000 0.000000 -4.747183 6.362513 14.039833 0.000000 0.000000 0.000000 2.873941 1.971980 -8.522335 -13.380674 -15.618663 20.680657 30.438838 -24.785352 -36.176435 0.000000 0.000000 0.000000 -65.233466 20.109472 65.563822 111.435447 -48.804402 -85.143559 -3.322655 6.497404 -54.131800 0.000000 0.000000 0.000000 -3.085611 56.797132 -23.760873 -20.205691 28.554886 -9.510955 0.243335 -1.964109 -14.123470
-0.803080 0.710022 1.169369 1.296000 -76.018200 -0.380000 7.037449 -20.206081 -18.404313 -1.241483 -1.125132 65.345457 5.520745 29.696624 -11.648061 0.000000 0.000000 0.000000 -15.365004 -4.333561 -58.190319 -0.275999 0.398186 52.492703 0.001165 7.788931 6.832442 0.000000 0.000000 0.000000 -3.846955 5.812777 14.524713 0.000000 0.000000 0.000000 2.808282 1.843095 -8.411033 -13.065122 -16.106021 21.665236 32.709730 -25.207415 -37.400199 0.000000 0.000000 0.000000 -63.125556 14.043397 66.808117 111.387683 -48.819326 -85.103508 -3.177446 6.390586 -52.838389 0.000000 0.000000 0.000000 -0.795149 55.231477 -17.516520 -28.446837 36.146446 -15.188812 0.560936 -2.951163 -21.519559
-0.769397 0.718877 1.187048 1.185000 -77.334000 -0.521000 5.318314 -20.438117 -18.658248 -1.200856 -1.128082 63.769829 5.830481 31.359101 -12.665296 0.000000 0.000000 0.000000 -17.942656 -0.885349 -55.129315 -0.318755 0.220612 44.499017 -0.413405 4.595763 11.386096 0.000000 0.000000 0.000000 -4.358060 4.518052 15.367126 0.000000 0.000000 0.000000 3.844539 1.499479 -8.083467 -12.842998 -16.536325 22.439169 34.608974 -25.602167 -38.309480 0.000000 0.000000 0.000000 -62.638401 6.429053 67.524115 109.498181 -49.384355 -83.509984 -2.835404 6.117869 -49.699156 0.000000 0.000000 0.000000 1.065306 53.541554 -10.765323 -41.870327 44.590679 -25.543832 0.826064 -3.549739 -26.192861
-0.731033 0.732583 1.210082 4.530000 -78.327500 -4.105000 2.486268 -18.253065 -18.331961 -1.096091 -1.123968 60.195340 6.239687 33.823768 -13.920738 0.000000 0.000000 0.000000 -22.396954 4.028644 -50.772900 -0.326570 0.012236 34.769301 -1.023471 -1.159636 11.761843 0.000000 0.000000 0.000000 -6.374366 -0.384835 16.289478 0.000000 0.000000 0.000000 7.417806 0.192517 -7.400112 -15.048130 -15.544837 23.147456 34.994777 -23.760757 -37.878843 0.000000 0.000000 0.000000 -65.326585 0.055603 65.729360 106.132496 -50.276134 -80.652840 -2.551207 5.866401 -46.977363 0.000000 0.000000 0.000000 0.396239 56.770484 -5.026410 -58.678830 50.470148 -39.552702 1.353897 -4.463046 -33.736550
-0.685562 0.747610 1.234106 2.758000 -79.727400 -1.471000 1.278054 -13.647586 -20.650381 -1.051331 -1.124865 58.159876 5.922770 32.622025 -18.775032 0.000000 0.000000 0.000000 -23.286973 5.951416 -49.330415 -0.241807 -0.010501 29.023901 -1.525056 -7.784639 1.208731 0.000000 0.000000 0.000000 -5.951136 -3.334732 16.725151 0.000000 0.000000 0.000000 8.943848 -0.547178 -7.571147 -15.782023 -15.684640 23.467421 35.648833 -24.087112 -37.665478 0.000000 0.000000 0.000000 -67.306368 -8.693852 66.875097 100.088146 -51.538303 -75.472100 -2.085296 5.396286 -42.231991 0.000000 0.000000 0.000000 -0.925553 57.596844 -0.119110 -78.205028 53.011550 -56.446769 1.808833 -5.076404 -39.203476
-0.640114 0.750174 1.254896 -4.955000 -83.139000 7.540000 1.374063 -8.782176 -26.486130 -1.008680 -1.082491 60.674397 5.486446 30.189958 -18.104643 0.000000 0.000000 0.000000 -16.952435 0.504810 -51.057452 -0.150541 0.136623 30.249395 -2.514238 -20.305557 -5.115778 0.000000 0.000000 0.000000 -5.018591 -5.260782 17.320350 0.000000 0.000000 0.000000 10.093849 -0.968665 -7.994720 -16.474230 -15.942231 23.298347 37.437451 -23.980377 -38.423471 0.000000 0.000000 0.000000 -70.350776 -16.717476 68.733271 94.408926 -52.363787 -70.561597 -1.604781 4.816385 -36.837309 0.000000 0.000000 0.000000 -5.407718 59.830891 1.340055 -95.632614 52.213858 -71.622441 1.358165 -4.469414 -33.791321
-0.596669 0.749747 1.273358 -50.855000 -87.213500 53.781000 1.322562 -1.379501 -30.875128 -1.087067 -1.090381 63.380093 4.826416 26.812201 -19.865036 0.000000 0.000000 0.000000 -6.927085 -7.686711 -54.920159 -0.079230 0.316471 36.836955 -2.635198 -21.073739 -4.288742 0.000000 0.000000 0.000000 -4.035751 -5.870135 19.137023 0.000000 0.000000 0.000000 10.225593 -1.082781 -8.519693 -15.664007 -16.387610 23.926095 38.986531 -23.932625 -41.047037 0.000000 0.000000 0.000000 -73.078374 -23.372910 71.965265 92.527356 -52.565731 -68.928204 -1.356138 4.466384 -33.765249 0.000000 0.000000 0.000000 -10.500901 62.400477 0.343597 -109.220003 49.463695 -83.274766 0.946402 -3.784061 -28.074204
